# AST/ASF file generated using VICON BodyLanguage
# -----------------------------------------------
:version 1.10
:name VICON
:units
  mass 1.0
  length 0.45
  angle deg
:documentation
   .ast/.asf automatically generated from VICON data using
   VICON BodyBuilder and BodyLanguage model FoxedUp or BRILLIANT.MOD
:root
   order TX TY TZ RX RY RZ
   axis XYZ
   position 0 0 0  
   orientation 0 0 0 
:bonedata
  begin
     id 1 
     name lhipjoint
     direction 0.623415 -0.642378 0.445763 
     length 2.49859 
     axis 0 0 0  XYZ
  end
  begin
     id 2 
     name lfemur
     direction 0.34202 -0.939693 0  
     length 6.69689  
     axis 0 0 20  XYZ
    dof rx ry rz
    limits (-160.0 20.0)
           (-70.0 70.0)
           (-60.0 70.0)
  end
  begin
     id 3 
     name ltibia
     direction 0.34202 -0.939693 0   
     length 7.37574   
     axis 0 0 20   XYZ
    dof rx
    limits (-10.0 170.0)
  end
  begin
     id 4 
     name lfoot
     direction 0.084323 -0.231675 0.969132   
     length 2.09111   
     axis -90 7.62852e-016 20   XYZ
    dof rx rz
    limits (-45.0 90.0)
           (-70.0 20.0)
  end
  begin
     id 5 
     name ltoes
     direction 1.5357e-011 -4.21957e-011 1   
     length 1.04989   
     axis -90 7.62852e-016 20   XYZ
    dof rx
    limits (-90.0 20.0)
  end
  begin
     id 6 
     name rhipjoint
     direction -0.605402 -0.653903 0.45376   
     length 2.45455  
     axis 0 0 0  XYZ 
  end
  begin
     id 7 
     name rfemur
     direction -0.34202 -0.939693 0   
     length 6.64523   
     axis 0 0 -20   XYZ
    dof rx ry rz
    limits (-160.0 20.0)
           (-70.0 70.0)
           (-70.0 60.0)
  end
  begin
     id 8 
     name rtibia
     direction -0.34202 -0.939693 0   
     length 7.3339   
     axis 0 0 -20   XYZ
    dof rx
    limits (-10.0 170.0)
 end
 begin
     id 9 
     name rfoot
     direction -0.120854 -0.332043 0.93549   
     length 2.23135  
     axis -90 -7.62852e-016 -20   XYZ
    dof rx rz
    limits (-45.0 90.0)
           (-20.0 70.0)
  end
  begin
     id 10 
     name rtoes
     direction -1.53563e-011 -4.21914e-011 1   
     length 1.10614   
     axis -90 -7.62852e-016 -20   XYZ
    dof rx
    limits (-90.0 20.0)
  end
  begin
     id 11 
     name lowerback
     direction 0.0319682 0.998615 -0.0417941   
     length 2.02718   
     axis 0 0 0   XYZ
    dof rx ry rz
    limits (-20.0 45.0)
           (-30.0 30.0)
           (-30.0 30.0)
  end
  begin
     id 12 
     name upperback
     direction 7.63181e-005 0.995808 0.0914691   
     length 1.97539   
     axis 0 0 0   XYZ
    dof rx ry rz
    limits (-20.0 45.0)
           (-30.0 30.0)
           (-30.0 30.0)
  end
  begin
     id 13 
     name thorax
     direction -0.016423 0.993627 0.111514   
     length 2.00349   
     axis 0 0 0   XYZ
    dof rx ry rz
    limits (-20.0 45.0)
           (-30.0 30.0)
           (-30.0 30.0)
  end
  begin
     id 14 
     name lowerneck
     direction -0.174763 0.981668 -0.0760716   
     length 1.71436   
     axis 0 0 0   XYZ
    dof rx ry rz
    limits (-20.0 45.0)
           (-30.0 30.0)
           (-30.0 30.0)
  end
  begin
     id 15 
     name upperneck
     direction 0.345458 0.934587 -0.0848868   
     length 1.72805   
     axis 0 0 0   XYZ
    dof rx ry rz
    limits (-20.0 45.0)
           (-30.0 30.0)
           (-30.0 30.0)
  end
  begin
     id 16
     name head
     direction 0.13001 0.989848 -0.0574291  
     length 1.767  
     axis 0 0 0   XYZ
    dof rx ry rz
    limits (-20.0 45.0)
           (-30.0 30.0)
           (-30.0 30.0)
  end
  begin
     id 17 
     name lclavicle
     direction 0.952951 0.290122 0.0878234  
     length 3.54654  
     axis 0 0 0   XYZ
    dof ry rz
    limits (-20.0 10.0)
           (0.0 20.0)
  end
  begin
     id 18 
     name lhumerus
     direction 1 -4.48957e-011 -4.56525e-028   
     length 5.19807   
     axis 180 -30 -90   XYZ
    dof rx ry rz
    limits (-60.0 90.0)
           (-90.0 90.0)
           (-90.0 90.0)
  end
  begin
     id 19
     name lradius
     direction 1 -4.48979e-011 -2.0317e-027   
     length 3.0937   
     axis 180 -30 -90   XYZ
    dof rx
    limits (-10.0 170.0)
  end
  begin
     id 20
     name lwrist
     direction 1 -4.48953e-011 -3.05809e-027   
     length 1.54685   
     axis 8.48514e-016 90 90   XYZ
    dof ry
    limits (-180.0 0.0)
 end
  begin
     id 21 
     name lhand
     direction 1 -4.48952e-011 -6.11639e-027   
     length 0.672632   
     axis 3.9013e-015 90 90   XYZ
    dof rx rz
    limits (-90.0 90.0)
           (-45.0 45.0)
  end
  begin
     id 22 
     name lfingers
     direction 1 -4.48925e-011 -1.22426e-026   
     length 0.542293   
     axis 7.80276e-015 90 90   XYZ
    dof rx
    limits (0.0 90.0)
  end
  begin
     id 23
     name lthumb
     direction 0.707107 -6.3486e-011 0.707107   
     length 0.778628   
     axis -90 45 5.37419e-014   XYZ
    dof rx rz
    limits (-45.0 45.0)
           (-45.0 45.0)
  end
  begin
     id 24 
     name rclavicle
     direction -0.960732 0.273675 -0.0457849   
     length 3.52079  
     axis 0 0 0   XYZ 
    dof ry rz
    limits (-10.0 20.0)
           (-20.0 0.0)
  end
  begin
     id 25 
     name rhumerus
     direction -1 -4.48976e-011 -1.63613e-027  
     length 5.45222   
     axis 180 30 90   XYZ
    dof rx ry rz
    limits (-90.0 60.0)
           (-90.0 90.0)
           (-90.0 90.0)
  end
  begin
     id 26 
     name rradius
     direction -1 -4.48957e-011 -7.00033e-028   
     length 3.01284   
     axis 180 30 90   XYZ
    dof rx
    limits (-10.0 170.0)
  end
  begin
     id 27 
     name rwrist
     direction -1 -4.48983e-011 -3.05543e-027   
     length 1.50642   
     axis 8.48514e-016 -90 -90   XYZ
    dof ry
    limits (-180.0 0.0)
  end
  begin
     id 28
     name rhand
     direction -1 -4.48984e-011 -6.11072e-027   
     length 0.622296   
     axis 3.9013e-015 -90 -90   XYZ
    dof rx rz
    limits (-90.0 90.0)
           (-45.0 45.0)
  end
  begin
     id 29
     name rfingers
     direction -1 -4.48865e-011 -1.22637e-026   
     length 0.501711   
     axis 7.80276e-015 -90 -90   XYZ
    dof rx
    limits (0.0 90.0)
  end
  begin
     id 30
     name rthumb
     direction -0.707107 -6.34932e-011 0.707107   
     length 0.72036   
     axis -90 -45 -5.37419e-014   XYZ
    dof rx rz
    limits (-45.0 45.0)
           (-45.0 45.0)
  end
:hierarchy
  begin
    root lhipjoint rhipjoint lowerback
    lhipjoint lfemur
    lfemur ltibia
    ltibia lfoot
    lfoot ltoes
    rhipjoint rfemur
    rfemur rtibia
    rtibia rfoot
    rfoot rtoes
    lowerback upperback
    upperback thorax
    thorax lowerneck lclavicle rclavicle
    lowerneck upperneck
    upperneck head
    lclavicle lhumerus
    lhumerus lradius
    lradius lwrist
    lwrist lhand lthumb
    lhand lfingers
    rclavicle rhumerus
    rhumerus rradius
    rradius rwrist
    rwrist rhand rthumb
    rhand rfingers
  end

#!OML:ASF H:\Not Pregnant\Project 1\Capture day 1\Session 1\non-pregnant.ASF
:FULLY-SPECIFIED
:DEGREES
67
root -5.03188 16.5035 34.6695 -159.692 -81.8497 -175.303
lowerback 0.807285 2.85108 -0.947135
upperback -2.42855 3.74371 -1.07012
thorax -2.93431 1.87103 -0.694257
lowerneck 13.1768 -6.65213 -29.4585
upperneck -3.26511 -14.7153 43.5328
head 3.19926 -9.64273 23.3927
rclavicle -1.9456e-014 -2.62893e-014
rhumerus -27.3833 9.538 -77.3021
rradius 89.4102
rwrist 36.0138
rhand -14.741 3.3134
rfingers 7.12502
rthumb 11.4146 -26.3559
lclavicle -1.9456e-014 -2.62893e-014
lhumerus -98.7857 -14.5839 145.901
lradius 77.0572
lwrist 33.8066
lhand -8.22686 -17.5045
lfingers 7.12502
lthumb 17.6905 11.7107
rfemur -32.4679 -15.4521 25.5235
rtibia 15.1381
rfoot -11.2845 25.4856
rtoes -2.08177
lfemur -27.5532 2.44041 -19.5627
ltibia 6.55125
lfoot -4.56214 -1.92236
ltoes -20.5858
68
root -4.99957 16.5087 34.6688 -159.053 -81.8213 -175.517
lowerback 1.03297 2.90663 -0.913657
upperback -2.26557 3.81803 -1.13861
thorax -2.88614 1.90743 -0.79238
lowerneck 13.1764 -6.67909 -29.3672
upperneck -2.8598 -14.8442 43.5129
head 3.35192 -9.70049 23.3433
rclavicle 2.23633e-016 1.13307e-014
rhumerus -26.7377 10.6338 -77.6385
rradius 91.1807
rwrist 35.521
rhand -16.2517 3.58099
rfingers 7.12502
rthumb 9.95737 -26.1635
lclavicle 2.23633e-016 1.13307e-014
lhumerus -98.672 -14.2181 146.341
lradius 77.7754
lwrist 35.2934
lhand -7.16377 -17.4099
lfingers 7.12502
lthumb 18.7133 11.71
rfemur -33.1158 -15.573 25.7622
rtibia 15.0703
rfoot -10.9474 25.7767
rtoes -1.67987
lfemur -28.0635 2.33194 -19.5542
ltibia 6.3804
lfoot -4.28417 -1.8311
ltoes -20.5814
69
root -4.96606 16.5135 34.6665 -159.701 -81.8988 -174.387
lowerback 1.2368 2.9488 -0.681335
upperback -2.11671 3.8817 -1.14618
thorax -2.83091 1.93514 -0.937492
lowerneck 13.1791 -6.70318 -29.2727
upperneck -2.4443 -14.9718 43.4889
head 3.50536 -9.75706 23.293
rclavicle 2.26615e-014 -2.73329e-014
rhumerus -26.0359 11.8161 -77.8625
rradius 92.9054
rwrist 34.7933
rhand -17.6896 3.90303
rfingers 7.12502
rthumb 8.56994 -25.9031
lclavicle 2.26615e-014 -2.73329e-014
lhumerus -98.5482 -13.8725 146.756
lradius 78.4828
lwrist 36.9044
lhand -6.26616 -17.2569
lfingers 7.12502
lthumb 19.5765 11.7775
rfemur -33.7679 -15.6451 26.2347
rtibia 14.9382
rfoot -10.5868 25.9986
rtoes -1.31613
lfemur -28.7367 2.21096 -19.2983
ltibia 6.3816
lfoot -4.05683 -1.73273
ltoes -20.5458
70
root -4.9327 16.5178 34.6639 -160.175 -81.9635 -173.429
lowerback 1.43061 2.98359 -0.491162
upperback -1.96169 3.93478 -1.15285
thorax -2.76632 1.9587 -1.05726
lowerneck 13.1773 -6.7166 -29.2015
upperneck -2.01287 -15.0937 43.4712
head 3.66568 -9.81128 23.2615
rclavicle -3.68746e-014 -1.49089e-015
rhumerus -25.2801 13.0789 -78.0132
rradius 94.5823
rwrist 33.8908
rhand -19.0311 4.30421
rfingers 7.12502
rthumb 7.27515 -25.5507
lclavicle -3.68746e-014 -1.49089e-015
lhumerus -98.4027 -13.5328 147.161
lradius 79.1709
lwrist 38.6102
lhand -5.7004 -17.1187
lfingers 7.12502
lthumb 20.1203 11.8594
rfemur -34.4005 -15.6959 26.6728
rtibia 14.7609
rfoot -10.1917 26.2098
rtoes -0.939037
lfemur -29.4821 2.09385 -19.0698
ltibia 6.51479
lfoot -3.89327 -1.62032
ltoes -20.4951
71
root -4.89894 16.5215 34.6598 -160.733 -82.0418 -172.369
lowerback 1.6115 3.01289 -0.31026
upperback -1.80631 3.9808 -1.14902
thorax -2.69529 1.97925 -1.16023
lowerneck 13.1819 -6.72625 -29.1385
upperneck -1.58104 -15.2164 43.4635
head 3.82862 -9.86809 23.2453
rclavicle 3.11098e-014 3.91606e-014
rhumerus -24.4902 14.372 -78.1515
rradius 96.204
rwrist 32.9101
rhand -20.2666 4.79245
rfingers 7.12502
rthumb 6.08239 -25.1002
lclavicle 3.11098e-014 3.91606e-014
lhumerus -98.2514 -13.2203 147.551
lradius 79.8402
lwrist 40.459
lhand -5.30807 -17.1257
lfingers 7.12502
lthumb 20.4974 11.8123
rfemur -35.035 -15.6648 27.0993
rtibia 14.5765
rfoot -9.7919 26.3248
rtoes -0.601607
lfemur -30.2656 1.97548 -18.8142
ltibia 6.67103
lfoot -3.73215 -1.50763
ltoes -20.4611
72
root -4.86517 16.5245 34.6546 -160.938 -82.0824 -171.67
lowerback 1.79121 3.04564 -0.213026
upperback -1.64254 4.02868 -1.15382
thorax -2.61985 2.0024 -1.22543
lowerneck 13.1942 -6.72616 -29.0944
upperneck -1.14834 -15.3348 43.4723
head 3.9942 -9.92614 23.2558
rclavicle 2.70844e-014 -6.75868e-015
rhumerus -23.6845 15.6622 -78.3364
rradius 97.7553
rwrist 31.9669
rhand -21.3614 5.4519
rfingers 7.12502
rthumb 5.02537 -24.4685
lclavicle 2.70844e-014 -6.75868e-015
lhumerus -98.0877 -12.9354 147.909
lradius 80.5137
lwrist 42.483
lhand -5.07164 -17.185
lfingers 7.12502
lthumb 20.7246 11.7284
rfemur -35.6924 -15.5807 27.4465
rtibia 14.4569
rfoot -9.44728 26.3922
rtoes -0.353561
lfemur -30.9636 1.87644 -18.6195
ltibia 6.68568
lfoot -3.51259 -1.40829
ltoes -20.4432
73
root -4.8315 16.5272 34.6495 -160.548 -82.0765 -171.583
lowerback 1.97124 3.08117 -0.219631
upperback -1.46504 4.07633 -1.17767
thorax -2.5362 2.02713 -1.25216
lowerneck 13.2075 -6.71739 -29.0659
upperneck -0.715667 -15.4468 43.4933
head 4.16168 -9.98323 23.2878
rclavicle 9.19379e-015 -1.02374e-014
rhumerus -22.8598 16.9762 -78.5723
rradius 99.2249
rwrist 31.054
rhand -22.3435 6.20029
rfingers 7.12502
rthumb 4.07712 -23.7404
lclavicle 9.19379e-015 -1.02374e-014
lhumerus -97.9033 -12.6861 148.224
lradius 81.2057
lwrist 44.7162
lhand -4.86292 -17.2145
lfingers 7.12502
lthumb 20.9251 11.6769
rfemur -36.3735 -15.4918 27.6909
rtibia 14.3987
rfoot -9.13358 26.4656
rtoes -0.118537
lfemur -31.5775 1.78966 -18.5276
ltibia 6.58061
lfoot -3.24832 -1.31799
ltoes -20.4579
74
root -4.79771 16.5293 34.6442 -159.858 -82.0534 -171.802
lowerback 2.14978 3.12752 -0.265267
upperback -1.27727 4.13621 -1.22389
thorax -2.44204 2.05831 -1.28021
lowerneck 13.2472 -6.70784 -29.0278
upperneck -0.312235 -15.5594 43.5395
head 4.32053 -10.0469 23.3426
rclavicle 3.23025e-014 -2.5842e-015
rhumerus -22.0317 18.2743 -78.8844
rradius 100.597
rwrist 30.2114
rhand -23.2303 7.00023
rfingers 7.12502
rthumb 3.2207 -22.9552
lclavicle 3.23025e-014 -2.5842e-015
lhumerus -97.7395 -12.5047 148.497
lradius 81.9086
lwrist 47.1013
lhand -4.67994 -17.1935
lfingers 7.12502
lthumb 21.1009 11.6783
rfemur -37.0924 -15.3993 27.8848
rtibia 14.4158
rfoot -8.87182 26.5303
rtoes 0.0673935
lfemur -32.109 1.70353 -18.4839
ltibia 6.3289
lfoot -2.91863 -1.24082
ltoes -20.4883
75
root -4.76415 16.5312 34.6402 -159.129 -82.0354 -172.059
lowerback 2.32536 3.17463 -0.290204
upperback -1.08322 4.1972 -1.27804
thorax -2.33765 2.08949 -1.32754
lowerneck 13.3052 -6.69287 -28.9919
upperneck 0.0733453 -15.6669 43.6011
head 4.47255 -10.1123 23.4172
rclavicle -1.70955e-014 -3.97569e-015
rhumerus -21.1762 19.6191 -79.1699
rradius 101.891
rwrist 29.3254
rhand -24.0539 7.76221
rfingers 7.12502
rthumb 2.42528 -22.2037
lclavicle -1.70955e-014 -3.97569e-015
lhumerus -97.5844 -12.3714 148.743
lradius 82.6006
lwrist 49.5288
lhand -4.53291 -17.1324
lfingers 7.12502
lthumb 21.2421 11.7236
rfemur -37.8458 -15.3882 28.1089
rtibia 14.469
rfoot -8.58352 26.6976
rtoes 0.424176
lfemur -32.6197 1.60863 -18.4463
ltibia 6.03799
lfoot -2.57175 -1.16652
ltoes -20.545
76
root -4.73061 16.5327 34.6379 -158.106 -82.005 -172.615
lowerback 2.50634 3.22206 -0.329928
upperback -0.883624 4.25705 -1.35258
thorax -2.2301 2.11997 -1.38769
lowerneck 13.3822 -6.67455 -28.9551
upperneck 0.437251 -15.7697 43.6743
head 4.61565 -10.1792 23.5063
rclavicle -3.05134e-014 -2.78299e-014
rhumerus -20.2956 21.0183 -79.4212
rradius 103.108
rwrist 28.3865
rhand -24.8807 8.35566
rfingers 7.12502
rthumb 1.62682 -21.6179
lclavicle -3.05134e-014 -2.78299e-014
lhumerus -97.4351 -12.2822 148.956
lradius 83.2608
lwrist 51.9496
lhand -4.43263 -17.1133
lfingers 7.12502
lthumb 21.3385 11.7318
rfemur -38.6039 -15.4429 28.3158
rtibia 14.502
rfoot -8.25005 26.9456
rtoes 0.885726
lfemur -33.0607 1.50439 -18.4599
ltibia 5.62216
lfoot -2.16989 -1.10351
ltoes -20.5967
77
root -4.69618 16.5332 34.6345 -157.697 -82.0069 -172.532
lowerback 2.69465 3.27694 -0.273066
upperback -0.694333 4.33016 -1.41348
thorax -2.13079 2.15579 -1.48893
lowerneck 13.4809 -6.65796 -28.8884
upperneck 0.775608 -15.8684 43.7551
head 4.74379 -10.2466 23.595
rclavicle -5.85421e-014 2.28602e-014
rhumerus -19.4041 22.4395 -79.6588
rradius 104.24
rwrist 27.4176
rhand -25.6894 8.8377
rfingers 7.12502
rthumb 0.845747 -21.1404
lclavicle -5.85421e-014 2.28602e-014
lhumerus -97.3217 -12.2477 149.136
lradius 83.8799
lwrist 54.2879
lhand -4.30966 -17.1526
lfingers 7.12502
lthumb 21.4566 11.6792
rfemur -39.3806 -15.4393 28.6145
rtibia 14.5463
rfoot -7.91684 27.1446
rtoes 1.35767
lfemur -33.5463 1.41455 -18.3614
ltibia 5.23056
lfoot -1.76618 -1.04241
ltoes -20.6398
78
root -4.66198 16.5371 34.6316 -156.944 -81.9534 -172.809
lowerback 2.89795 3.34184 -0.279
upperback -0.498458 4.41326 -1.49363
thorax -2.03576 2.19713 -1.57637
lowerneck 13.5834 -6.6387 -28.8193
upperneck 1.10431 -15.9603 43.836
head 4.86596 -10.3111 23.6865
rclavicle -6.49032e-014 1.51076e-014
rhumerus -18.4932 23.9196 -79.8538
rradius 105.294
rwrist 26.4159
rhand -26.4949 9.19719
rfingers 7.12502
rthumb 0.0677231 -20.7825
lclavicle -6.49032e-014 1.51076e-014
lhumerus -97.2085 -12.2449 149.285
lradius 84.4478
lwrist 56.5042
lhand -4.21339 -17.1922
lfingers 7.12502
lthumb 21.549 11.629
rfemur -40.1378 -15.4277 28.8466
rtibia 14.5789
rfoot -7.549 27.3761
rtoes 1.90808
lfemur -34.0473 1.3521 -18.3371
ltibia 4.92242
lfoot -1.41524 -0.969509
ltoes -20.6615
79
root -4.62786 16.5368 34.6286 -156.173 -81.8756 -173.112
lowerback 3.11594 3.41297 -0.299606
upperback -0.30224 4.50327 -1.57725
thorax -1.94901 2.24187 -1.66074
lowerneck 13.6956 -6.61939 -28.7409
upperneck 1.42193 -16.0475 43.9124
head 4.97961 -10.3733 23.7734
rclavicle -1.96797e-014 5.36719e-015
rhumerus -17.573 25.4458 -80.0201
rradius 106.265
rwrist 25.4201
rhand -27.2538 9.48195
rfingers 7.12502
rthumb -0.665198 -20.4968
lclavicle -1.96797e-014 5.36719e-015
lhumerus -97.1015 -12.2728 149.405
lradius 84.97
lwrist 58.5616
lhand -4.03796 -17.1634
lfingers 7.12502
lthumb 21.7175 11.6384
rfemur -40.8672 -15.3969 29.0673
rtibia 14.5697
rfoot -7.15758 27.6063
rtoes 2.43411
lfemur -34.6432 1.311 -18.3243
ltibia 4.81682
lfoot -1.16099 -0.874478
ltoes -20.6686
80
root -4.59343 16.5363 34.6251 -155.845 -81.8221 -172.965
lowerback 3.34679 3.48378 -0.255905
upperback -0.108969 4.59524 -1.64284
thorax -1.86855 2.28697 -1.76362
lowerneck 13.8118 -6.60089 -28.6561
upperneck 1.72997 -16.1318 43.9868
head 5.08802 -10.434 23.8582
rclavicle -3.47873e-015 5.18828e-014
rhumerus -16.6427 26.9979 -80.162
rradius 107.143
rwrist 24.4959
rhand -27.9103 9.79975
rfingers 7.12502
rthumb -1.29932 -20.176
lclavicle -3.47873e-015 5.18828e-014
lhumerus -96.9978 -12.3329 149.502
lradius 85.4331
lwrist 60.4416
lhand -3.87986 -17.0183
lfingers 7.12502
lthumb 21.8693 11.7658
rfemur -41.571 -15.3653 29.3719
rtibia 14.5112
rfoot -6.72449 27.8493
rtoes 3.00573
lfemur -35.3413 1.28055 -18.2337
ltibia 4.89605
lfoot -0.987342 -0.763553
ltoes -20.6925
